# xmcd CD database file
#
# Track frame offsets:
#	150
#	18230
#	33822
#	49887
#	70105
#	88530
#	109197
#	131667
#
# Disc length: 1995 seconds
#
# Revision: 0
# Processed by: cddbd v1.5.1PL0 Copyright (c) Steve Scherf et al.
# Submitted via: CDex 1.51
#
DISCID=6007c908
DTITLE=関ジャニ∞ - 感謝=∞
DYEAR=1900
DGENRE=JPop
TTITLE0=DREAMIN' BLOOD
TTITLE1=浪花いろは節
TTITLE2=All of me for you
TTITLE3=旅人
TTITLE4=10年後の今日の日も
TTITLE5=冬のリヴィエラ
TTITLE6=Eden
TTITLE7=浪花いろは節(Trance Mix)
EXTD=
EXTT0=
EXTT1=
EXTT2=
EXTT3=
EXTT4=
EXTT5=
EXTT6=
EXTT7=
PLAYORDER=
